<?xml version="1.0" encoding="UTF-8"?>
<svg width="40px" height="36px" viewBox="0 0 40 36" version="1.1" xmlns="http://www.w3.org/2000/svg" xmlns:xlink="http://www.w3.org/1999/xlink">
    <!-- Generator: Sketch 48.2 (47327) - http://www.bohemiancoding.com/sketch -->
    <title>icon-closequote</title>
    <desc>Created with Sketch.</desc>
    <defs></defs>
    <g id="Icons" stroke="none" stroke-width="1" fill="none" fill-rule="evenodd">
        <g id="icon-closequote" fill="#ccc">
            <path d="M0,8 C0,9.93333333 0.616666667,11.6 1.85,13 C3.11666667,14.4 4.55,15.15 6.15,15.25 L8.55,15.25 C10.0833333,15.3166667 10.85,16 10.85,17.3 C10.85,18.5666667 10.2,20.5333333 8.9,23.2 C7.6,25.8 6.15,28.1 4.55,30.1 C3.71666667,31.2333333 3.3,32.1166667 3.3,32.75 C3.3,34.35 4.1,35.15 5.7,35.15 C7.06666667,35.15 8.66666667,33.9166667 10.5,31.45 C15.4333333,24.8833333 17.9,18.3166667 17.9,11.75 C17.9,8.31666667 17.0166667,5.51666667 15.25,3.35 C13.3833333,1.11666667 11.1166667,0 8.45,0 C6.01666667,0 4,0.783333333 2.4,2.35 C0.8,3.85 0,5.73333333 0,8 Z" id="Path"></path>
            <path d="M28.25,15.25 L30.65,15.25 C32.05,15.3166667 32.75,16 32.75,17.3 C32.75,18.5666667 32.1333333,20.5333333 30.9,23.2 C29.6,25.8 28.1833333,28.1 26.65,30.1 C25.75,31.2333333 25.3,32.1166667 25.3,32.75 C25.3,34.35 26.0666667,35.15 27.6,35.15 C28.9,35.15 30.5,33.9166667 32.4,31.45 C37.4333333,24.8166667 39.95,18.25 39.95,11.75 C39.95,8.31666667 39.0666667,5.51666667 37.3,3.35 C35.5,1.11666667 33.1833333,0 30.35,0 C27.9833333,0 26,0.783333333 24.4,2.35 C22.8,3.85 22,5.73333333 22,8 C22,9.93333333 22.6166667,11.6 23.85,13 C25.1166667,14.4 26.5833333,15.15 28.25,15.25 Z" id="Path"></path>
        </g>
    </g>
</svg>